<svg width="100" height="20" viewBox="0 0 100 20" fill="none" xmlns="http://www.w3.org/2000/svg">
<g clip-path="url(#clip0)">
<path d="M4.4822 5.77406L12.2598 2.64071L11.4762 1.51349C11.2532 1.19826 10.9706 0.930456 10.6444 0.725457C10.3183 0.520458 9.95508 0.382309 9.57569 0.318948C9.1963 0.255587 8.8082 0.268263 8.43369 0.356248C8.05919 0.444233 7.70566 0.605792 7.39342 0.831641L0.826535 5.56123C0.615572 5.71148 0.436255 5.90224 0.298915 6.12252C0.161576 6.3428 0.0689301 6.58824 0.0263167 6.84469C-0.0162966 7.10115 -0.00803489 7.36355 0.0506257 7.61679C0.109286 7.87002 0.217186 8.10907 0.368107 8.32016L2.65633 11.5442C3.83542 10.9793 5.11997 10.6717 6.42563 10.6416L4.4822 5.77406Z" fill="#9CCBFF"/>
<path d="M16.5113 0.922119L12.26 2.63265L4.48242 5.78571L6.42584 10.6414H6.61392C8.30713 10.6428 9.96795 11.1085 11.4177 11.9883C12.8675 12.8682 14.0514 14.129 14.8421 15.6351L19.5439 13.7472C20.0189 13.551 20.3983 13.1752 20.6005 12.7005C20.8028 12.2258 20.8117 11.6902 20.6254 11.209L16.5113 0.922119Z" fill="#65A7FD"/>
<path d="M12.7732 13.0065C11.0327 11.4437 8.77011 10.5992 6.4375 10.6417L8.56899 15.9979C8.76666 16.4922 9.1513 16.8873 9.63839 17.0964C10.1255 17.3056 10.6752 17.3116 11.1668 17.1133L14.8498 15.6314C14.3211 14.6373 13.6175 13.7479 12.7732 13.0065Z" fill="#9CCBFF"/>
<path d="M41.8462 2.52235C41.4772 1.89954 40.9774 1.36525 40.3819 0.956806C39.7863 0.54836 39.1094 0.275595 38.3982 0.15756C36.4391 -0.145922 29.1826 0.0866157 29.1826 0.0866157L26.146 19.1626H29.1983C29.4632 19.1579 29.7178 19.0586 29.9166 18.8824C30.1155 18.7063 30.2455 18.4647 30.2836 18.2009L31.2436 12.8092C31.2553 12.7332 31.2931 12.6637 31.3503 12.6126C31.4075 12.5616 31.4806 12.5321 31.557 12.5294C32.5522 12.5294 36.1335 12.4308 37.9162 12.0249C39.1439 11.7141 40.251 11.041 41.0952 10.0921C41.9394 9.14314 42.4821 7.96185 42.6533 6.70016C42.8179 5.51776 42.6024 3.62987 41.8462 2.52235ZM39.1583 6.97605C38.696 7.91015 37.5087 8.45799 36.4156 8.61564C34.9917 8.76299 33.5595 8.81171 32.1291 8.76147C32.0865 8.757 32.0454 8.74348 32.0085 8.72181C31.9715 8.70014 31.9396 8.67082 31.9148 8.63578C31.8899 8.60075 31.8728 8.5608 31.8645 8.5186C31.8562 8.47639 31.8569 8.4329 31.8666 8.39099L32.7207 3.5471C32.7207 3.5471 36.059 3.47221 37.4225 3.59045C39.0839 3.74416 39.8322 5.61629 39.1583 6.97605Z" fill="#65A7FD"/>
<path d="M83.6064 7.38996C83.0266 6.47163 82.1881 6.12873 80.5346 6.12479C79.5587 6.11329 78.5943 6.33624 77.7213 6.77511C76.8624 7.20493 76.0474 7.71845 75.2881 8.30829C75.099 7.62216 74.6688 7.02837 74.0774 6.63716C73.4818 6.24303 72.5376 6.10114 71.4483 6.10114C70.5015 6.08441 69.5635 6.28527 68.7056 6.6884C67.8346 7.06632 67.0015 7.52691 66.2175 8.06392L66.5545 6.09326H62.5971L60.4578 19.1785H62.8087C63.7647 19.1785 64.4269 18.7843 64.615 17.8542L65.7904 10.5312C67.0638 9.57739 68.4352 8.98619 69.3168 8.99014C70.0377 8.99014 70.4335 9.21479 70.696 9.61286C70.9585 10.0109 70.9859 10.7046 70.7822 11.6939L69.4539 19.1824H72.1496C72.5323 19.1843 72.9049 19.0595 73.2101 18.8273C73.5153 18.5952 73.7361 18.2684 73.8384 17.8975L75.0138 10.6218C76.299 9.6641 77.451 9.09261 78.3247 9.09655C79.0496 9.09655 79.3866 9.21873 79.6452 9.62075C79.9038 10.0228 79.9351 10.7204 79.7235 11.7175L78.501 19.1824H80.7422C81.254 19.1847 81.7511 19.0109 82.151 18.6896C82.5509 18.3684 82.8294 17.9192 82.9403 17.4167L83.9552 11.2367C84.3 9.59447 84.1837 8.31223 83.6064 7.38996Z" fill="#65A7FD"/>
<path d="M92.4339 19.1233C91.4789 19.1266 90.5303 18.9667 89.6285 18.6504C88.8557 18.3826 88.1527 17.9435 87.5714 17.3655C87.0244 16.7996 86.6363 16.0978 86.4469 15.3318C86.2351 14.4391 86.2351 13.5088 86.4469 12.6162C86.6527 11.6478 87.0526 10.7318 87.6224 9.92427C88.1744 9.13732 88.8492 8.44524 89.6207 7.87478C90.3855 7.31345 91.2329 6.87593 92.1322 6.57808C92.9977 6.28121 93.9057 6.12941 94.8201 6.12877C95.7184 6.10553 96.6127 6.25813 97.4531 6.57808C98.1181 6.84094 98.703 7.27442 99.1497 7.83536C99.5701 8.38814 99.8402 9.0415 99.9333 9.73114C100.038 10.52 99.9979 11.3215 99.8158 12.0959C99.7507 12.384 99.6696 12.6683 99.5729 12.9473C99.5389 13.0471 99.5036 13.1378 99.4671 13.2192C99.4235 13.327 99.3486 13.4189 99.252 13.4829C99.1555 13.547 99.042 13.5801 98.9264 13.5779L90.6472 13.5109C90.5679 13.5091 90.4891 13.5239 90.4157 13.5542C90.3423 13.5846 90.2759 13.6298 90.2207 13.6872C90.1655 13.7446 90.1227 13.8128 90.095 13.8875C90.0672 13.9623 90.0552 14.0421 90.0595 14.1218C90.0797 14.4459 90.1639 14.7627 90.3072 15.0537C90.4505 15.3447 90.65 15.604 90.8941 15.8165C91.6454 16.3783 92.5689 16.6573 93.5036 16.6048C94.1073 16.5844 94.7086 16.5172 95.302 16.4038C96.1563 16.1623 96.994 15.8647 97.8097 15.5131C97.914 15.4708 98.0283 15.4599 98.1386 15.4818C98.249 15.5036 98.3506 15.5573 98.4312 15.6363C98.5117 15.7152 98.5677 15.816 98.5923 15.9264C98.6169 16.0368 98.6091 16.152 98.5698 16.258L98.2642 17.0147C98.1606 17.274 98.0053 17.5092 97.8078 17.7058C97.6104 17.9024 97.375 18.0562 97.1162 18.1577C96.5154 18.4026 95.8972 18.6015 95.2668 18.7528C94.3417 18.9957 93.3899 19.1202 92.4339 19.1233ZM96.0504 11.4299C96.1942 11.4327 96.3339 11.3813 96.442 11.2857C96.55 11.1902 96.6186 11.0574 96.6342 10.9135C96.7083 10.3916 96.5868 9.86057 96.2933 9.42372C95.9355 8.92186 95.2824 8.66961 94.3342 8.66698C93.5302 8.67213 92.7449 8.91171 92.0735 9.35671C91.6019 9.64683 91.2014 10.0402 90.9019 10.5076C90.8473 10.5954 90.817 10.6963 90.8143 10.7999C90.8116 10.9034 90.8366 11.0058 90.8866 11.0964C90.9366 11.1869 91.0099 11.2623 91.0987 11.3148C91.1875 11.3672 91.2887 11.3947 91.3917 11.3944L96.0504 11.4299Z" fill="#65A7FD"/>
<path d="M58.1847 17.0935L59.9479 6.03418H56.3079L54.2234 19.0406H56.253C57.2443 19.009 58.0084 18.2996 58.1847 17.0935Z" fill="#65A7FD"/>
<path d="M52.9776 6.03418C50.8618 6.03418 49.4081 6.52685 48.358 7.72501L48.5892 6.03418H44.7455L42.708 19.1233H44.8826C45.8465 19.1233 46.4499 18.4139 46.7359 17.4443L47.7821 11.5087C48.3386 10.7587 49.0672 10.1553 49.9057 9.7497C50.7441 9.34412 51.6676 9.14845 52.5975 9.17936C52.9561 9.18602 53.3073 9.07662 53.5993 8.86729C53.8914 8.65795 54.1088 8.35975 54.2196 8.01667L54.6389 6.046L52.9776 6.03418Z" fill="#65A7FD"/>
<path d="M58.4901 3.95709C59.5764 3.95709 60.4571 3.07127 60.4571 1.97855C60.4571 0.885825 59.5764 0 58.4901 0C57.4038 0 56.5232 0.885825 56.5232 1.97855C56.5232 3.07127 57.4038 3.95709 58.4901 3.95709Z" fill="#65A7FD"/>
</g>
<defs>
<clipPath id="clip0">
<rect width="100" height="19.1667" fill="white"/>
</clipPath>
</defs>
</svg>
